<svg height="512pt" viewBox="0 -8 512 512" width="512pt" xmlns="http://www.w3.org/2000/svg"><path d="m0 418.691406c.0429688 14.121094 11.480469 25.558594 25.601562 25.601563h42.664063c-.015625-5.820313.996094-11.597657 2.988281-17.066407 2.125-6.351562 5.589844-12.171874 10.152344-17.066406h-47.273438c-4.710937 0-8.53125-3.820312-8.53125-8.535156v-8.53125c-14.140624 0-25.601562 11.460938-25.601562 25.597656zm0 0"/><path d="m486.398438 393.09375h-8.53125v8.53125c0 4.714844-3.820313 8.535156-8.535157 8.535156h-38.738281c4.5625 4.894532 8.027344 10.714844 10.152344 17.066406 1.992187 5.46875 3.003906 11.246094 2.988281 17.066407h42.664063c14.140624 0 25.601562-11.460938 25.601562-25.601563-.042969-14.121094-11.480469-25.558594-25.601562-25.597656zm0 0"/><path d="m273.757812 146.742188c2.796876-13.242188 9.222657-25.449219 18.558594-35.25h14.882813c4.714843 0 8.535156-3.820313 8.535156-8.535157 0-4.710937-3.820313-8.53125-8.535156-8.53125h-119.464844c-4.714844 0-8.535156 3.820313-8.535156 8.53125 0 4.714844 3.820312 8.535157 8.535156 8.535157h14.882813c9.554687 10.0625 16.023437 22.65625 18.644531 36.285156-112.003907 15.320312-195.527344 110.933594-195.660157 223.980468v21.335938h452.265626v-21.335938c-.144532-116.292968-88.378907-213.566406-204.109376-225.015624zm-3.191406-35.25c-7.210937 10.179687-11.949218 21.898437-13.847656 34.226562h-.121094c-1.621094-.085938-3.242187-.085938-4.863281-.085938-4.523437 0-8.960937.171876-13.398437.429688h-.109376c-1.855468-12.453125-6.609374-24.292969-13.875-34.570312zm-127.121094 261.035156c-1.636718 2.175781-4.191406 3.46875-6.910156 3.5h-68.269531c-4.710937 0-8.53125-3.824219-8.53125-8.535156 0-53.164063 17.578125-72.277344 19.539063-74.324219 1.628906-1.574219 3.796874-2.460938 6.058593-2.476563h51.203125c2.558594-.019531 4.984375 1.148438 6.570313 3.15625 1.636719 1.96875 2.296875 4.574219 1.789062 7.085938-5.0625 20.992187-5.148437 42.878906-.253906 63.914062.859375 2.601563.414063 5.460938-1.195313 7.679688zm26.28125-163.328125c-9.171874 17.320312-14.664062 36.347656-16.125 55.894531 0 4.710938-3.820312 8.53125-8.535156 8.53125h-42.667968c-2.957032-.007812-5.699219-1.546875-7.246094-4.070312-1.546875-2.519532-1.679688-5.660157-.347656-8.300782 17.921874-35.925781 61.097656-62.125 62.976562-63.234375 3.257812-1.910156 7.386719-1.449219 10.144531 1.132813 2.757813 2.582031 3.492188 6.667968 1.800781 10.046875zm0 0"/><path d="m117.589844 256.558594h19.625c1.101562-9.035156 3.042968-17.949219 5.804687-26.625-9.464843 7.878906-17.996093 16.808594-25.429687 26.625zm0 0"/><path d="m89.515625 307.757812c-3.585937 5.546876-11.265625 20.90625-12.546875 51.199219h48.984375c-2.5-16.984375-2.355469-34.253906.425781-51.199219zm0 0"/><path d="m119.464844 410.160156c-16.21875-.003906-30.203125 11.410156-33.449219 27.304688-.445313 2.25-.675781 4.535156-.683594 6.828125 0 18.851562 15.285157 34.132812 34.132813 34.132812 18.851562 0 34.136718-15.28125 34.136718-34.132812-.007812-2.292969-.238281-4.578125-.683593-6.828125-3.246094-15.894532-17.230469-27.308594-33.453125-27.304688zm0 0"/><path d="m81.40625 478.425781h-30.207031c-4.710938 0-8.53125 3.820313-8.53125 8.53125 0 4.714844 3.820312 8.535157 8.53125 8.535157h68.265625c-14.542969.027343-28.402344-6.1875-38.058594-17.066407zm0 0"/><path d="m17.066406 478.554688h-8.53125c-4.714844 0-8.535156 3.820312-8.535156 8.53125 0 4.714843 3.820312 8.535156 8.535156 8.535156h8.53125c4.714844 0 8.535156-3.820313 8.535156-8.535156 0-4.710938-3.820312-8.53125-8.535156-8.53125zm0 0"/><path d="m167.679688 427.226562c1.992187 5.46875 3.003906 11.246094 2.988281 17.066407h170.664062c-.015625-5.820313.996094-11.597657 2.988281-17.066407 2.125-6.351562 5.589844-12.171874 10.15625-17.066406h-196.953124c4.566406 4.894532 8.03125 10.714844 10.15625 17.066406zm0 0"/><path d="m392.535156 410.160156c-16.222656-.003906-30.207031 11.410156-33.453125 27.304688-.445312 2.25-.675781 4.535156-.683593 6.828125 0 18.851562 15.285156 34.132812 34.136718 34.132812 18.847656 0 34.132813-15.28125 34.132813-34.132812-.007813-2.292969-.238281-4.578125-.683594-6.828125-3.246094-15.894532-17.230469-27.308594-33.449219-27.304688zm0 0"/><path d="m354.476562 478.425781h-30.210937c-4.710937 0-8.53125 3.820313-8.53125 8.53125 0 4.714844 3.820313 8.535157 8.53125 8.535157h68.269531c-14.546875.027343-28.40625-6.1875-38.058594-17.066407zm0 0"/><path d="m281.601562 478.554688c-4.714843 0-8.535156 3.820312-8.535156 8.53125 0 4.714843 3.820313 8.535156 8.535156 8.535156h8.53125c4.714844 0 8.535157-3.820313 8.535157-8.535156 0-4.710938-3.820313-8.53125-8.535157-8.53125zm0 0"/><path d="m165.035156 60.460938c5.632813-1.023438 11.179688-2.300782 16.726563-3.667969 8.660156-2.300781 17.472656-4.011719 26.367187-5.121094 2.902344-.253906 5.800782-.425781 8.617188-.425781-4.539063-3.039063-9.699219-5.019532-15.101563-5.800782-6.367187-.839843-12.78125-1.265624-19.203125-1.28125-17.066406-.425781-36.351562-.851562-51.199218-15.273437-2.644532-2.5625-5.121094-5.292969-7.59375-8.023437-4.628907-5.703126-10.164063-10.605469-16.382813-14.503907-8.824219-4.542969-18.675781-6.71875-28.589844-6.316406-7.046875.261719-14.050781 1.230469-20.90625 2.902344 1.621094.425781 3.242188.9375 4.863281 1.363281 19.457032 5.546875 38.058594 12.117188 51.289063 31.574219 1.621094 2.304687 3.070313 4.695312 4.433594 6.996093 2.0625 3.589844 4.402343 7.015626 7 10.242188 6.910156 8.277344 20.222656 10.75 39.679687 7.335938zm0 0"/><path d="m74.15625 94.679688c-3.328125-1.621094-6.742188-3.242188-10.15625-4.777344-10.664062-4.183594-22.3125-5.191406-33.535156-2.902344l-2.816406.511719c5.386718 2.007812 10.632812 4.375 15.699218 7.085937 7.402344 4.203125 14.375 9.121094 20.824219 14.675782 6.957031 6.25 14.808594 11.425781 23.292969 15.359374 13.710937 6.328126 29.710937 5.132813 42.328125-3.15625 3.136719-2.382812 5.949219-5.164062 8.363281-8.277343-11.695312-.363281-23.277344-2.40625-34.390625-6.058594-10.15625-3.441406-20.050781-7.605469-29.609375-12.460937zm0 0"/></svg>